<svg width="1920" height="1080" xmlns="http://www.w3.org/2000/svg">
 <!-- Created with Method Draw - http://github.com/duopixel/Method-Draw/ -->
 <g>
  <title>background</title>
  <rect fill="none" id="canvas_background" height="1082" width="1922" y="-1" x="-1"/>
  <g display="none" overflow="visible" y="0" x="0" height="100%" width="100%" id="canvasGrid">
   <rect fill="url(#gridpattern)" stroke-width="0" y="0" x="0" height="100%" width="100%"/>
  </g>
 </g>
 <g>
  <title>Layer 1</title>
  <path id="svg_1" d="m311.527161,93.8507c-6.458038,0 -9.781525,-5.833649 -9.781525,-12.829437c0,-5.836777 1.661316,-11.535583 6.46225,-11.535583c3.319275,0 8.3591,5.698807 10.020111,11.535583c3.323212,8.493347 0,12.829437 -6.700836,12.829437zm1107.791199,332.947884c14.811523,0 18.134521,1.475037 9.780273,11.472168c-4.799805,6.99054 -14.829712,12.828979 -19.623535,12.828979c-4.982544,0 -10.043091,-5.83844 -10.043091,-12.828979c0,-7.170593 6.72168,-11.472168 19.886353,-11.472168zm-1035.134338,-407.269279c-14.828735,-2.871307 -16.488037,-17.199946 0,-21.49924c8.364319,-1.315399 13.162933,2.799843 13.162933,11.469589c0,7.158343 -4.798615,11.350802 -13.162933,10.029651zm-184.748764,452.91259c19.80217,-4.194641 19.80217,-7.160522 13.10434,-16.983582c-4.981003,-7.162109 -6.642075,-15.81012 -3.321671,-18.687134c1.66098,-4.294983 10.019501,0 14.828125,8.490112c6.696472,11.507324 11.678192,13.013062 24.854584,5.83844c8.177399,-4.297974 14.818024,-7.171387 14.818024,-2.803528c0,2.803528 4.98642,0 11.50531,-5.852112c9.967133,-8.473816 11.697784,-27.180969 1.660065,-37.172485c-8.178955,-8.48877 -49.516205,-5.665466 -60.95929,4.300842c-6.706818,7.234436 -11.690323,5.690674 -18.21962,-7.096375c-9.967163,-21.334747 -9.967163,-24.378052 13.173782,-25.700134c19.863617,0 19.863617,0 3.384033,-8.65625c-8.365417,-4.134277 -16.557816,-12.841248 -16.557816,-18.463257c0,-14.340485 23.009354,-22.835815 33.037399,-12.845764c3.32132,4.17627 9.781982,8.473877 16.500641,8.473877c13.157013,0 75.966644,-48.462616 75.966644,-58.491119c0,-4.292084 6.5336,-7.180359 13.178436,-4.292084c8.176941,1.477905 23.001648,-2.888275 38.021057,-10.052887c21.275543,-11.457764 21.275543,-12.790955 9.774719,-31.479614c-8.113037,-12.787231 -18.150299,-17.16214 -41.279755,-17.16214c-26.33728,0 -33.039185,2.833313 -41.15863,20.021942c-3.376251,11.468597 -13.348114,19.959717 -19.875183,19.959717c-11.446045,0 -14.826721,-12.782349 -3.324951,-19.959717c4.985504,-2.859802 8.376251,-12.833191 8.376251,-22.818115c0,-15.710602 -3.390747,-18.544098 -24.862701,-14.333557c-21.534546,2.797424 -21.534546,1.483704 -16.476776,-20.003906c3.318359,-12.862671 8.119324,-24.320709 11.495758,-25.656525c3.322144,-1.540314 6.640625,-14.329346 6.640625,-27.175323c0,-25.638634 9.843109,-29.996376 28.006561,-11.529755c8.304901,10.028595 13.343903,11.529755 16.482666,2.871155c3.319275,-5.694572 15.001923,-7.00634 33.166107,-4.193321c24.659729,5.693108 26.321991,4.193321 22.99881,-12.786713c-1.661346,-10.052673 -3.320587,-21.518723 -4.98291,-24.385117c0,-4.296982 -8.177643,-9.970627 -18.0159,-14.331787c-19.822784,-7.168625 -24.807007,-24.317917 -6.646973,-24.317917c4.986206,0 9.838165,-2.797241 9.838165,-8.48616c0,-4.361847 9.964996,-7.157043 23.130798,-5.84256c18.212738,1.480713 27.988861,-4.150879 52.857117,-34.124377c18.140472,-21.520154 31.30481,-33.020276 32.965576,-27.207494c1.662231,7.199242 10.0354,11.374691 18.213531,11.374691c13.163818,0 14.825195,-4.175449 9.967041,-22.843792c-1.661133,-12.82592 -9.967041,-28.490807 -15.006805,-35.663506c-14.834534,-15.811447 -14.834534,-34.340363 0,-28.662704c11.685699,5.658638 47.990356,-9.993515 47.990356,-19.995667c0,-4.324821 4.852539,-7.182564 11.499329,-7.182564c6.703369,0 9.83728,8.721924 9.83728,20.009224c0,14.32917 3.322632,20.020264 11.70166,15.820526c6.458313,-2.992882 11.499146,-11.478844 11.499146,-17.15789c0,-17.124939 52.787598,-47.138763 65.945374,-38.651306c5.055908,2.81633 10.039734,0 11.699585,-9.968735c4.859131,-20.027832 34.628601,-35.696289 47.806213,-25.695602c6.701721,4.168076 13.164368,2.826401 14.87323,-1.486221c3.323608,-5.680328 16.49762,-9.976212 31.328064,-11.371826c14.817383,-1.474304 34.642822,-7.149719 43.007751,-12.945038c31.312683,-18.530334 62.617737,-17.233154 75.79187,2.797424c8.37085,14.350983 11.687256,14.350983 11.687256,4.375763c0,-12.855865 6.465027,-14.331802 46.145691,-10.037079c62.803955,5.661316 72.661438,5.661316 95.839966,-1.497986c14.843994,-4.133072 19.824219,-2.796738 19.824219,8.672974c0,7.159637 4.800537,12.837311 11.504639,12.837311c4.983887,0 9.783813,-4.203369 9.783813,-8.500305c0,-11.511993 26.578857,-17.143051 49.697266,-11.511993c17.975586,5.661316 19.641113,7.174988 14.838867,45.661453c-1.661621,22.965637 0,38.649307 3.136719,38.649307c3.325806,0 6.709717,-9.986511 6.709717,-24.319214c0,-24.162216 18.136353,-34.149368 24.852173,-14.330093c1.66272,7.160828 6.458862,4.337234 9.782715,-7.002853c8.369873,-29.99939 26.506104,-14.356628 21.526123,18.497467c-5.034546,27.154694 -5.034546,27.154694 9.779419,17.168182c8.378784,-4.304413 14.836548,-15.646271 14.836548,-22.825974c0,-7.172897 5.048096,-15.668945 11.684937,-18.663223c13.161499,-5.654297 27.995117,15.84549 23.201904,31.496262c-1.661255,7.168228 -1.661255,12.848007 3.131836,12.848007c3.324219,0 6.650391,-4.178604 6.650391,-7.159485c0,-4.188843 8.176636,-5.688522 18.20105,-2.872192c21.47522,4.351898 24.613525,15.809265 6.460938,22.819763c-4.799683,3.065277 -9.840942,10.052849 -9.840942,15.843925c0,10.018707 3.380005,10.018707 21.535278,0c29.649414,-17.153511 42.82312,-15.843925 47.803833,2.850334c3.383179,9.987488 9.84375,14.341011 16.489746,9.987488c6.689941,-1.501526 21.533936,4.353523 33.034424,14.344536c10.026855,8.480949 24.780518,15.648415 31.504272,15.648415c9.843262,0 9.843262,7.178493 6.455322,27.173096c-3.322632,21.523384 -3.322632,24.324589 6.710571,15.671272c13.150269,-14.171936 18.135376,-12.847778 23.011475,7.17252c1.660522,9.994012 13.283936,17.148202 26.450928,21.447495c14.814819,2.875191 23.008667,10.02987 23.008667,18.521098c0,8.674103 4.982666,18.642746 10.029175,24.317307c13.15686,10.034088 9.786987,40.035172 -5.046509,50.023926c-4.982666,2.958221 -11.513428,1.478409 -13.176514,-2.824448c-3.322266,-4.350189 -14.814819,-4.350189 -36.28772,0c-34.700073,9.997513 -41.155396,12.792999 -33.033325,25.809036c5.043823,8.506126 62.676514,5.674797 94.187988,-4.359146c9.833374,-4.295181 13.149536,0 13.149536,20.024086c0,14.329681 -3.316162,25.63501 -8.297729,25.63501c-3.374634,0 -6.513062,4.352692 -6.513062,11.513184c0,17.14743 8.174194,15.683655 29.654785,-4.344116c11.50415,-11.466583 18.149414,-14.325806 26.322998,-7.169067c8.304932,7.169067 10.035645,7.169067 10.035645,-4.297516c0,-7.007813 -3.392212,-12.847168 -8.376709,-12.847168c-3.137085,0 -6.511963,-5.693939 -6.511963,-11.315552c0,-7.164917 4.853027,-12.839714 11.49646,-12.839714c5.053345,0 11.697998,2.813019 11.697998,7.00634c0,4.292969 6.523193,9.971191 14.827148,11.454987c11.499146,4.372528 14.823242,10.049591 13.161133,27.191315c-3.32312,32.795258 3.32251,42.848053 27.995361,37.169952c11.683472,-2.871796 18.147949,0 13.159668,5.678101c-1.476196,2.797424 0,9.967957 3.327148,12.955414c13.356201,8.549225 8.368408,28.488525 -6.464233,28.488525c-18.203613,0 -23.186279,7.176331 -13.343262,20.029663c6.647461,7.172272 11.682129,8.509399 18.145996,2.812927c15.0177,-14.329071 18.218506,-2.812927 19.879883,54.315918c0,28.675232 3.320068,51.496521 6.642334,51.496521c8.174438,0 4.983276,31.481323 -6.642334,44.333252c-6.520386,7.164429 -6.520386,14.162537 -1.661377,20.0224c11.626099,12.782043 0,49.955261 -14.895874,49.955261c-13.158325,0 -37.953003,27.17865 -37.953003,40.027832c0,15.648682 -21.35144,0 -26.333252,-17.224548c-4.984741,-15.630127 -4.984741,-15.630127 -8.368896,-4.297852c-3.137085,13.013123 14.882324,52.995056 29.834351,64.322571c9.847778,8.704346 -8.310913,22.970337 -21.465454,17.188232c-6.708374,-2.862854 -9.845337,-11.36145 -9.845337,-20.019714c0,-24.320007 -41.341675,-85.612915 -72.657959,-108.618286c-16.673096,-11.365356 -31.511475,-24.194336 -31.511475,-28.494812c0,-8.689575 -52.836426,-35.701172 -82.504272,-44.360352c-16.473511,-4.344452 -21.458618,-2.794861 -21.458618,8.65918c0,8.50824 -3.136963,11.303345 -9.840454,8.50824c-14.843994,-5.684509 -21.533936,7.167908 -8.375732,20.02124c18.216187,15.645508 15.079224,34.288574 -4.808472,27.115051c-13.333008,-4.313354 -14.995728,-2.813904 -10.010864,21.501526c1.661133,14.174683 5.03772,32.853088 5.03772,41.371094c0,8.648254 3.313354,14.32843 6.634277,14.32843c4.877563,0 6.539673,-2.86438 3.147339,-7.159119c-1.6698,-4.374268 1.730225,-8.513733 8.375732,-8.513733c4.984619,0 9.840454,5.622681 9.840454,11.312195c0,5.841492 -6.517822,11.532959 -18.216187,10.051941c-9.781616,0 -18.141479,-4.210449 -18.141479,-7.015259c0,-13.004456 -44.483032,-101.51709 -57.650879,-114.527588c-14.82959,-14.170288 -4.980957,-18.480286 -122.11792,48.681274c-18.224976,9.991211 -38.022095,31.479797 -48.053589,47.146973c-8.122192,15.662659 -21.296631,31.495789 -27.990967,34.351868c-6.645386,2.820007 -31.327637,25.640137 -52.788086,49.958069c-92.52655,107.128723 -77.51886,119.977417 -71.005859,338.767456c28,165.817566 28,165.817566 28,165.817566c-66.022766,0 -66.022766,0 -66.022766,0c-54.498474,0 -54.498474,0 -54.498474,0c5.03363,-152.960754 5.03363,-152.960754 5.03363,-152.960754c3.321167,-12.856812 4.982666,-38.661499 6.643738,-52.996887c1.662292,-8.48938 -46.326843,-45.638672 -44.6651,-54.149414c0,-7.169861 49.650696,12.809387 49.650696,5.618225c8.190979,-104.257874 0,-187.247375 -21.467041,-231.386902c-4.977356,-27.199219 -46.319214,-114.472961 -52.846313,-114.472961c-1.65802,0 -13.360901,-8.550781 -24.799133,-18.538208c-19.859558,-18.634338 -27.990479,-20.012268 -138.66394,-25.641113c-118.867798,-5.858032 -118.867798,-5.858032 -118.867798,-5.858032c-28.114838,20.020203 -28.114838,20.020203 -28.114838,20.020203c-16.493774,12.972412 -33.036041,21.46637 -37.837494,21.46637c-10.033081,0 -51.374542,29.977661 -69.342651,47.200134c-1.657318,0 -3.317688,-1.481018 -3.317688,-2.860535c-1.660583,0 -1.660583,0 -1.660583,-1.515808c-1.661346,-4.119934 -3.386047,-8.476135 -6.699219,-12.84613c10.020172,-7.174377 18.200043,-11.472229 21.521057,-9.973145c4.986481,2.798767 9.849823,0 9.849823,-7.156799c0,-7.172913 -9.849823,-9.998413 -36.170746,-7.172913c-31.505798,4.33728 -39.682739,5.860107 -44.66684,22.819641c-8.194336,8.669006 -9.852936,21.506165 -4.983124,31.495972c-1.735229,12.845764 -1.735229,21.500122 0,21.500122c1.661072,0 3.322388,-2.818604 8.306,-5.858276c0,1.540466 1.661224,3.039673 3.322815,4.364258c-16.498627,4.371155 -24.860229,17.15686 -23.143494,30.013245c-8.360535,5.837097 -16.536957,8.648865 -26.50882,13.013977c0,0 0,-1.526306 -1.475769,-1.526306c6.465057,-12.832336 9.786865,-27.171448 11.447632,-48.661255c3.376251,-24.159302 1.660736,-39.967468 -3.322266,-39.967468c-3.321899,0 -6.649597,5.835144 -6.649597,14.331421c1.662903,7.15625 -1.475769,14.331055 -8.186584,15.642761c-4.986969,1.503296 -8.310516,-1.311707 -8.310516,-8.486511c0,-17.192932 -6.51767,-17.192932 -21.337677,-1.546143c-6.642761,5.860046 -19.820221,12.856812 -31.325317,15.888733c-15.003006,4.137207 -19.80217,1.302002 -26.516647,-14.34259c-4.982819,-12.847717 -8.304352,-27.177734 -4.982819,-32.855408c1.660919,-7.174316 1.660919,-12.950195 -4.854507,-12.950195c-18.14151,0 -4.979691,-22.882385 16.551804,-27.19574zm141.938736,-328.635101c-9.969849,-1.47525 -18.164185,-5.630737 -21.482605,-11.466736c-1.663391,-8.488983 -3.324402,-8.488983 -3.324402,0c0,5.835999 -6.701904,9.991486 -13.160034,11.466736c-11.681732,0 -11.681732,1.500336 1.66217,7.161346c8.120483,2.89447 16.482086,7.194641 18.140686,7.194641c1.475983,0 9.85556,-4.300171 18.164185,-7.194641c14.819275,-7.161346 14.819275,-7.161346 0,-7.161346zm1309.075348,230.172791c3.137085,2.796356 6.464233,-1.503387 6.464233,-8.669678c0,-5.693939 -3.327148,-11.355255 -6.464233,-11.355255c-5.032959,0 -8.356445,2.862823 -8.356445,6.999603c0,4.355652 3.323486,10.193573 8.356445,13.02533zm-11.68335,12.83548c-1.659912,-4.365723 -9.841797,-10.039124 -16.483276,-10.039124c-4.869507,0 -8.189209,5.673401 -4.869507,10.039124c1.547607,4.292419 8.188477,7.111938 14.83252,7.111938c6.520264,0 8.18103,-2.819519 6.520264,-7.111938zm-14.825806,64.284668c4.984009,0 11.693115,-1.499451 11.693115,-2.803528c0,-3.034912 -6.709106,-5.852112 -11.693115,-8.64801c-6.526978,-2.877014 -11.508789,-1.377441 -11.508789,2.795898c0,4.357666 4.981812,8.65564 11.508789,8.65564zm13.165894,-135.808899c6.647461,-2.80188 10.022583,-7.156006 8.310303,-11.291656c-4.989624,-10.211823 -32.984985,-10.211823 -32.984985,0c0,11.291656 9.851318,15.649506 24.674683,11.291656zm-90.620605,-107.130157c-8.370117,4.296753 -13.354492,12.849854 -11.692017,17.143494c8.307983,11.367981 18.150269,8.496948 26.4552,-9.979553c8.173462,-17.19754 4.853027,-20.022888 -14.763184,-7.16394zm-31.557251,220.112946c42.999878,38.486694 44.658691,39.973633 44.658691,27.184692c0,-7.162109 -3.320068,-13.014221 -8.304077,-13.014221c-4.797363,0 -13.16748,-7.172363 -18.151855,-15.645508c-4.871094,-8.515137 -14.832886,-17.226135 -23.00708,-17.226135c-15.011841,0 -15.011841,1.54071 4.804321,18.701172zm-34.654541,-67.319366c10.038818,0 14.838379,-2.820526 8.307617,-4.13678c-4.985352,-2.862823 -13.108521,-2.862823 -18.138672,0c-4.98645,1.316254 0,4.13678 9.831055,4.13678zm-47.80603,-194.30896c4.985229,4.344116 19.823975,10.038177 32.988525,12.851837c23.125122,4.343567 24.856323,4.343567 11.678101,-7.170227c-14.994019,-14.164124 -56.156006,-18.464294 -44.666626,-5.68161zm-100.637817,-237.09803c-5.044556,4.131592 -6.703125,12.849678 -5.044556,18.460938c3.32251,11.529205 13.167847,1.481422 13.167847,-15.642792c0,-8.6679 -1.66272,-9.990845 -8.123291,-2.818146zm49.466064,308.624306c13.152588,7.153809 18.136108,7.153809 24.857788,-2.881744c13.164673,-15.65744 4.792603,-22.832397 -19.873779,-12.801025c-19.80957,7.005341 -19.80957,7.005341 -4.984009,15.68277zm-32.98291,-71.526276c24.86084,-15.677155 24.86084,-15.677155 4.973145,-15.677155c-13.333008,0 -23.178345,5.69516 -28.159424,15.677155c-3.138062,10.038177 -6.459229,15.654907 -4.798828,15.654907c0,0 13.163086,-8.489807 27.985107,-15.654907zm-36.360107,231.62381c11.513062,15.676147 31.322388,15.676147 24.860962,-1.486267c-1.661255,-5.675354 -3.322876,-12.846039 -3.322876,-14.333496c0,-1.308014 -6.705688,-1.308014 -14.823486,1.487457c-13.358521,2.878265 -13.358521,7.170685 -6.7146,14.332306zm-51.127075,-58.659302c13.101929,15.66864 19.817017,17.207672 34.644287,5.674744c9.838867,-7.171204 9.838867,-7.171204 0,-8.473877c-4.985107,0 -18.148804,-1.49472 -29.660278,-4.369843c-16.485962,-5.620209 -16.485962,-5.620209 -4.984009,7.168976zm-1.718262,-155.769104c8.365112,0 18.213745,-22.824158 13.161743,-29.978088c-6.459473,-7.175415 -19.806152,4.300171 -19.806152,17.126801c0,7.170105 3.321777,12.851288 6.644409,12.851288zm-80.78833,97.090668c-10.014282,5.862061 -8.352295,7.239258 4.802612,7.239258c8.376709,0 18.157959,-2.87085 21.543701,-7.239258c4.983032,-11.280182 -11.505859,-11.280182 -26.346313,0zm1.662231,125.845978c1.47583,1.479919 6.460083,-1.505737 11.51709,-8.50824c4.981445,-5.825134 19.803833,-13.003632 31.304199,-15.819763c14.833374,-4.351318 21.483765,-11.301514 21.483765,-21.495087c0,-24.143585 -23.143188,-16.988983 -47.806519,14.327606c-10.038452,15.825623 -18.160767,28.675415 -16.498535,31.495483zm-18.13623,-65.790405c14.812012,-15.70752 14.812012,-18.521301 3.137085,-22.87677c-13.169067,-5.621216 -23.022949,7.16925 -23.022949,29.992767c-1.661377,17.20697 -1.661377,17.20697 19.885864,-7.115997zm-26.527222,-168.660034c1.658813,11.513794 4.97998,9.973297 14.833496,-11.310364c11.693726,-22.840485 11.693726,-25.862732 1.661743,-25.862732c-6.457886,0 -13.176025,4.356445 -14.836426,11.533386c-3.321167,5.632294 -3.321167,18.642059 -1.658813,25.639709zm-8.171753,-117.125053c0,5.811615 3.136719,19.982635 6.509399,30.001083c4.981567,19.957306 4.981567,19.957306 10.036987,2.814117c6.458862,-17.146103 0,-42.849289 -10.036987,-42.849289c-4.848633,0 -6.509399,4.361954 -6.509399,10.034088zm-115.673828,47.162903c-8.127197,9.953842 -8.127197,19.946709 -1.661133,49.954735c3.322266,21.490906 11.697266,42.982239 16.494995,47.188202c8.367798,7.169281 10.028931,0 11.690186,-44.328979c0,-54.149345 -8.369507,-71.361244 -26.524048,-52.813957zm14.833862,151.45681c1.663696,2.812866 5.04541,-2.815552 3.320679,-11.352814c0,-8.667633 -1.656982,-9.996033 -4.981079,-4.29718c-1.47644,5.657074 -1.47644,12.834442 1.6604,15.649994zm59.495117,-134.333519c-1.661621,2.823418 -1.661621,22.843498 3.371582,44.340874c4.982178,37.169952 6.45813,38.637512 8.119873,11.518921c1.65979,-44.331848 -1.661743,-65.82589 -11.491455,-55.859795zm-56.174438,403.117363c10.031006,-17.191895 26.511597,-45.850159 38.023071,-63.013855c13.167114,-18.459961 21.522949,-42.784668 24.845215,-67.147583c4.797607,-38.489319 4.797607,-38.489319 4.797607,-38.489319c-19.798462,21.327209 -19.798462,21.327209 -19.798462,21.327209c-9.84436,11.533203 -16.489136,24.32428 -16.489136,28.675415c0,11.305847 -31.378296,82.812622 -41.15686,95.680359c-4.9823,7.091187 -13.365112,22.967773 -14.841431,34.27301c-8.352661,32.808472 6.465454,27.177185 24.619995,-11.305237zm-117.138489,147.117065c5.036011,28.517517 5.036011,28.517517 21.535156,-32.812317c9.840942,-33.0177 24.663452,-85.832886 34.624756,-118.644653c13.180298,-41.510254 18.220764,-75.821411 18.220764,-124.338501c0,-62.969788 -1.722778,-64.288849 -14.898315,-57.116333c-29.826477,18.467773 -46.327209,69.966675 -52.970337,169.918152c-3.136353,51.516785 -6.512024,103.016663 -9.832642,114.389465c-1.662598,11.455566 0,32.952942 3.320618,48.604187zm3.375671,-365.723297c6.458923,14.110992 13.175476,25.638977 13.175476,25.638977c1.660278,0 9.785522,-8.672333 16.486511,-20.022705c8.306702,-9.986511 21.461853,-21.444824 26.444702,-25.6362c19.698975,-13.015747 24.683472,-52.983795 8.195862,-80.159119c-13.178711,-24.322998 -49.466797,-51.500641 -56.184082,-42.803589c-3.321106,2.812378 -8.118469,29.991913 -11.494141,61.47226c-6.644043,47.162384 -6.644043,61.490448 3.375671,81.510376zm-10.019714,-327.292763c3.323425,2.855042 6.644043,1.313171 6.644043,-2.99707c0,-5.678528 -3.320618,-11.371017 -6.644043,-14.171936c-5.043518,-3.039886 -8.182129,-1.499336 -8.182129,4.156982c0,4.336426 3.138611,10.014954 8.182129,13.012024zm-534.827698,384.247841c23.007141,1.491241 23.007141,1.491241 23.007141,1.491241c23.20697,0 46.330444,-18.480225 46.330444,-34.288055c0,-10.047272 -1.660736,-10.047272 -69.337585,32.796814zm9.854126,-39.988434c0,4.313599 3.313171,8.672333 8.359802,8.672333c8.116302,0 31.322449,-25.638977 26.338043,-30.009216c-5.052246,-5.841583 -34.697845,12.860016 -34.697845,21.336884zm18.200043,-98.47702c24.800995,28.517212 36.302185,31.332764 49.463715,12.801025c13.356384,-17.145599 1.661957,-28.612854 -38.018158,-32.823395c-32.969025,-4.339355 -32.969025,-4.339355 -11.445557,20.022369zm-18.200043,-80.157257c0,2.975586 11.67749,9.987946 24.84314,15.831238c60.978455,27.177246 72.664154,27.177246 71.00235,1.313446c0,-15.669434 -24.858429,-49.954277 -34.700439,-49.954277c-11.627991,0 -61.14505,27.115654 -61.14505,32.809593zm89.200348,202.953003c18.145203,0 19.80719,-4.297607 4.983643,-11.303619c-6.701324,-1.5401 -13.163849,0 -14.822845,4.132416c-3.389587,4.373047 1.658997,7.171204 9.839203,7.171204zm13.163513,-335.784892c-11.502502,-7.170296 -26.392303,-9.974876 -33.038147,-7.170296c-11.502991,5.673515 -9.842255,7.170296 6.645844,11.529214c8.187836,2.799425 24.856842,5.670732 33.03598,6.991884c9.850098,0 9.850098,-2.859344 -6.643677,-11.350802zm-1.535461,51.513812c9.839783,0 11.501953,-1.516449 4.858154,-5.811615c-4.858154,-1.352753 -11.502563,-1.352753 -14.825195,1.500229c-1.661011,2.794937 3.322632,5.614975 9.967041,4.311386zm9.839783,32.837234c-23.185516,0 -23.185516,1.340988 -9.839783,12.807312c16.480103,12.830032 21.353394,14.331284 27.998962,5.660583c11.499481,-11.28923 3.323029,-18.467896 -18.15918,-18.467896zm32.981354,-161.485291c-6.645691,-7.155769 -8.306702,5.678059 -4.985046,21.335777c1.662354,9.993202 8.307983,18.692513 11.691528,18.692513c6.452454,0 1.65863,-31.552692 -6.706482,-40.02829zm52.842468,188.623886c-3.320618,1.322166 4.985657,10.026695 14.841003,17.18676c10.022156,7.131073 18.143372,9.994843 18.143372,5.630737c0,-9.965576 -27.998718,-28.660957 -32.984375,-22.817497zm-41.343445,10.026695c-14.821716,9.994141 -6.459595,35.629303 15.023438,39.973419c11.499268,2.820984 29.640869,14.350616 41.161011,25.634766c10.022156,11.536499 18.143372,15.833252 18.143372,11.536499c0,-14.330231 -65.948181,-82.978058 -74.32782,-77.144684zm67.684204,118.612579c-9.838623,-22.988556 -21.355103,-34.303955 -42.822205,-41.467896c-16.482361,-5.694244 -33.038086,-8.652985 -38.022156,-7.161804c-4.984558,1.46756 14.820068,20.011658 43.003906,41.469879c52.844177,37.144318 52.844177,37.144318 37.840454,7.159821zm87.669495,-220.104012c-3.322144,0 -6.701721,5.659195 -6.701721,11.346802c0,7.159348 3.379578,11.456238 6.701721,11.456238c4.801697,0 8.171509,-4.29689 8.171509,-11.456238c0,-5.687607 -3.369812,-11.346802 -8.171509,-11.346802zm-15.007874,117.162636c0,9.976105 28.16571,2.801727 39.677002,-10.049591c16.491821,-21.491768 14.830444,-27.115654 -6.710815,-27.115654c-14.817261,0 -32.966187,19.953636 -32.966187,37.165245zm47.990967,-308.620468c-4.984985,18.480392 -8.313965,34.12355 -6.645386,35.649467c4.984192,5.666779 18.145752,-37.130745 18.145752,-54.334572c0,-7.165436 -4.983887,1.499847 -11.500366,18.685104zm85.817993,288.615677c-8.302856,0 -14.836548,2.793182 -14.836548,8.471405c0,4.356445 4.872681,7.177734 9.855469,7.177734c6.642578,0 13.169312,-2.821289 14.830139,-7.177734c3.319336,-5.678223 -1.660828,-8.471405 -9.84906,-8.471405zm-19.819702,268.622711c9.855835,25.804077 24.618591,49.956177 32.988098,55.794617c8.354553,4.358582 24.861328,24.31543 34.700562,44.324463c9.781433,20.017639 19.797729,35.690491 21.458801,35.690491c8.190552,0 -8.353394,-131.508545 -19.797058,-171.498718c-10.032593,-34.336548 -13.165588,-65.828613 -11.500977,-115.787323c1.468384,-37.151672 0,-70.01825 -3.326599,-72.839233c-1.661621,-2.804657 -13.180176,-2.804657 -23.193665,0c-18.151794,5.694061 -19.812317,9.983154 -19.812317,41.468018c0,24.214722 -3.396423,37.171143 -11.516846,42.839813c-23.178223,12.853333 -21.516113,85.689697 0,140.007874zm-47.852051,-191.484985c-3.321533,-21.519928 -6.645874,-24.322998 -24.791626,-24.322998c-21.536011,0 -21.536011,1.475433 -19.875061,31.475891c0,18.521118 3.370911,40.03299 5.032471,50.01767c1.66272,9.972809 8.122925,19.940674 14.84259,21.510651c13.161865,7.170166 27.979248,-42.849396 24.791626,-78.681213zm-24.791626,144.282806c-14.84259,-17.145721 -24.857666,-35.613983 -26.337708,-39.968109c0,-5.677429 -8.362854,-19.964203 -18.145081,-32.811981c-10.03949,-12.832306 -21.536377,-28.661438 -26.516907,-34.354004c-16.489624,-19.958313 -13.165527,-2.797272 4.98053,41.532501c11.496887,29.98761 31.318604,57.108459 54.502563,79.944153c42.817444,38.647339 47.799683,31.481506 11.516602,-14.34256zm-26.337708,70.180511c17.958313,0 16.482239,-1.476563 -8.362854,-24.356445c-16.499451,-14.289124 -27.997253,-29.941589 -27.997253,-37.109528c0,-5.677948 -21.467407,-25.86026 -46.326477,-44.328522c-24.678162,-18.701599 -47.805115,-37.166107 -51.12738,-42.837769c-3.379761,-7.160645 -5.041443,-7.160645 -5.041443,1.312317c0,8.649567 -8.118652,9.967865 -34.643005,5.696472c-18.14621,-2.8992 -32.978668,-2.8992 -32.978668,-1.337128c0,2.814362 6.643005,19.965393 13.283325,37.166107c11.51886,28.497986 16.503448,34.296051 52.863495,45.644775c22.99939,7.176178 59.304382,24.315613 82.502747,37.171387c21.467407,12.952148 47.803345,22.978333 57.827515,22.978333zm-257.66156,48.476868c6.642761,0 16.485016,-2.815918 23.130859,-7.168762c11.511108,-9.991272 1.727692,-9.991272 -19.809967,0c-9.838287,4.352844 -11.499084,5.689819 -3.320892,7.168762zm-18.142853,-35.660156c16.481171,-5.819458 69.327332,-11.47113 117.316803,-11.47113c90.619751,-1.345581 108.838806,-5.683777 72.479919,-14.357422c-11.500427,-2.795532 -37.84137,-9.966492 -59.305237,-17.12677c-38.023407,-12.862976 -115.672272,-8.506958 -123.848694,5.782166c-1.658386,2.855835 -9.969757,4.342102 -18.15863,2.855835c-16.482788,-4.338867 -33.036133,7.174438 -38.019135,30.015747c-6.643829,18.462708 4.983002,20.003174 49.534973,4.301575zm-132.037689,32.844238c3.390747,11.470764 19.875946,12.810852 33.03598,2.815918c8.118805,-5.673157 8.118805,-8.485962 0,-17.160034c-6.701904,-8.468689 -11.497864,-8.468689 -21.519867,-1.304077c-6.649597,4.138 -11.516113,11.295349 -11.516113,15.648193zm-52.788483,99.978638c6.458649,0 9.781982,4.336548 6.458649,12.834229c-1.476929,5.861938 -6.458649,11.482971 -9.833344,11.482971c-4.992615,0 -8.130402,-5.621033 -8.130402,-11.482971c0,-6.998474 4.808624,-12.834229 11.505096,-12.834229z" stroke-width="1.5" fill="#fff"/>
 </g>
</svg>