<svg width="250" height="250" xmlns="http://www.w3.org/2000/svg">
 <!-- Created with Method Draw - http://github.com/duopixel/Method-Draw/ -->
 <g>
  <title>background</title>
  <rect fill="none" id="canvas_background" height="252" width="252" y="-1" x="-1"/>
  <g display="none" overflow="visible" y="0" x="0" height="100%" width="100%" id="canvasGrid">
   <rect fill="url(#gridpattern)" stroke-width="0" y="0" x="0" height="100%" width="100%"/>
  </g>
 </g>
 <g>
  <title>Layer 1</title>
  <path transform="rotate(149.795, 124.967, 129.297)" id="svg_4" d="m51.709381,212.064758c6.258938,-19.593094 14.826134,-36.186432 22.952408,-44.4561c8.706039,-8.859985 4.843704,-12.7034 -4.137375,-4.117188c-3.778793,3.612732 -4.858398,0.989838 -4.858398,-11.803009c0,-30.522224 16.549881,-49.408333 56.369415,-64.327629c33.693024,-12.623795 58.533493,-26.820152 68.832611,-39.337914l8.392853,-10.200699l0,17.748207c0,21.945267 -7.121719,55.100105 -15.004776,69.854042c-8.362762,15.650909 -37.026398,44.539673 -51.092072,51.494125c-12.601593,6.229736 -39.514603,8.063843 -53.898438,3.672852c-7.167999,-2.188187 -9.442993,-0.516373 -13.157249,9.669693c-2.469456,6.773743 -4.49033,16.40979 -4.49033,21.413895c0,5.680969 -2.383461,9.098236 -6.345512,9.098236c-4.705765,0 -5.626556,-2.250153 -3.563137,-8.708511z" stroke-opacity="null" stroke-width="1.5" stroke="null" fill="#ffffff"/>
 </g>
</svg>