<svg width="100" height="100" xmlns="http://www.w3.org/2000/svg">
 <!-- Created with Method Draw - http://github.com/duopixel/Method-Draw/ -->
 <g>
  <title>background</title>
  <rect fill="none" id="canvas_background" height="102" width="102" y="-1" x="-1"/>
  <g display="none" overflow="visible" y="0" x="0" height="100%" width="100%" id="canvasGrid">
   <rect fill="url(#gridpattern)" stroke-width="0" y="0" x="0" height="100%" width="100%"/>
  </g>
 </g>
 <g>
  <title>Layer 1</title>
  <path transform="rotate(126.7, 49.9707, 51.2969)" id="svg_4" d="m18.514416,79.873077c2.687431,-6.764664 6.365974,-12.493637 9.855186,-15.348801c3.738159,-3.058975 2.079765,-4.385941 -1.776482,-1.421494c-1.62252,1.24733 -2.086075,0.341751 -2.086075,-4.075073c0,-10.538025 7.106102,-17.058594 24.203613,-22.209595c14.466942,-4.358459 25.132816,-9.259857 29.554996,-13.581711l3.603683,-3.521866l0,6.127701c0,7.576767 -3.057892,19.023727 -6.442673,24.11763c-3.590759,5.403595 -15.898212,15.377655 -21.937656,17.778732c-5.410812,2.150864 -16.966583,2.784103 -23.142639,1.268082c-3.077759,-0.755493 -4.054588,-0.178284 -5.649391,3.338531c-1.060326,2.338684 -1.92804,5.665604 -1.92804,7.393311c0,1.961395 -1.023399,3.141235 -2.724602,3.141235c-2.020538,0 -2.415903,-0.776886 -1.529922,-3.006683z" stroke-opacity="null" stroke-width="1.5" stroke="null" fill="#ffffff"/>
 </g>
</svg>