<svg width="200" height="200" xmlns="http://www.w3.org/2000/svg">
 <!-- Created with Method Draw - http://github.com/duopixel/Method-Draw/ -->
 <g>
  <title>background</title>
  <rect fill="none" id="canvas_background" height="202" width="202" y="-1" x="-1"/>
  <g display="none" overflow="visible" y="0" x="0" height="100%" width="100%" id="canvasGrid">
   <rect fill="url(#gridpattern)" stroke-width="0" y="0" x="0" height="100%" width="100%"/>
  </g>
 </g>
 <g>
  <title>Layer 1</title>
  <path transform="rotate(135.049, 100.969, 99.7969)" id="svg_4" d="m41.808201,158.608215c5.054619,-13.922012 11.973354,-25.71254 18.535973,-31.588608c7.030857,-6.295532 3.911701,-9.02652 -3.341263,-2.925507c-3.051693,2.567062 -3.923565,0.703339 -3.923565,-8.386734c0,-21.687805 13.365402,-35.107468 45.52298,-45.708496c27.209915,-8.969929 47.27066,-19.05727 55.588058,-27.951862l6.777924,-7.248184l0,12.611118c0,15.593388 -5.751389,39.15184 -12.117599,49.635345c-6.753632,11.120865 -29.901901,31.648026 -41.261093,36.589569c-10.176834,4.426575 -31.911331,5.729843 -43.527466,2.609772c-5.788757,-1.554825 -7.626007,-0.366913 -10.625572,6.870895c-1.994286,4.813095 -3.626316,11.66008 -3.626316,15.21579c0,4.036682 -1.924847,6.464844 -5.124519,6.464844c-3.800297,0 -4.543915,-1.598877 -2.877541,-6.187943z" stroke-opacity="null" stroke-width="1.5" stroke="null" fill="#ffffff"/>
 </g>
</svg>