<svg width="300" height="300" xmlns="http://www.w3.org/2000/svg">
 <!-- Created with Method Draw - http://github.com/duopixel/Method-Draw/ -->
 <g>
  <title>background</title>
  <rect fill="none" id="canvas_background" height="302" width="302" y="-1" x="-1"/>
 </g>
 <g>
  <title>Layer 1</title>
  <path id="svg_7" d="m171.003342,83.185982c-16.017471,0 -29.7659,11.818748 -36.495636,28.882111c-2.68837,-2.135414 -5.652328,-3.427742 -8.816559,-3.427742c-9.567703,0 -17.530312,10.951736 -19.991333,25.816238c-4.200172,-2.362167 -9.084236,-3.79187 -14.301018,-3.79187c-15.649719,0 -28.345695,12.181839 -28.345695,27.202744c0,13.556747 10.412224,24.703171 23.938301,26.765915c-0.606804,1.46376 -1.076439,2.911667 -1.076439,4.448105c0,14.380447 27.690231,26.108429 61.816879,26.108429c34.127151,0 61.817413,-11.727982 61.817413,-26.108429c0,-0.965897 -0.421646,-1.830887 -0.666428,-2.770477c1.494812,0.528214 2.975021,1.092789 4.613419,1.092789c9.129776,0 16.556854,-8.82547 16.556854,-19.689697c0,-10.866806 -7.427078,-19.693634 -16.556854,-19.693634c-1.11824,0 -2.069717,0.550507 -3.126511,0.803482c0.924149,-4.343307 1.537766,-8.777023 1.537766,-13.491226c0,-28.762253 -18.297958,-52.146736 -40.90416,-52.146736l0,0z" stroke-opacity="null" stroke-width="1.5" stroke="null" fill="#898989"/>
 </g>
</svg>