<svg width="300" height="300" xmlns="http://www.w3.org/2000/svg">
 <!-- Created with Method Draw - http://github.com/duopixel/Method-Draw/ -->
 <g>
  <title>background</title>
  <rect fill="none" id="canvas_background" height="302" width="302" y="-1" x="-1"/>
 </g>
 <g>
  <title>Layer 1</title>
  <path id="svg_4" d="m166.640732,269.666809c0,-5.1651 0,-10.332123 0,-15.498932c23.602325,-0.100571 47.204773,-0.199112 70.807053,-0.301102c0,-4.873978 0,-9.749924 0,-14.624329c-18.640823,-0.195831 -37.281845,-0.389877 -55.922485,-0.587204c21.325333,-30.419098 42.650726,-60.840546 63.974472,-91.261719c9.192764,-1.27095 17.465836,6.708771 18.101303,16.38031c0.952637,40.450546 0.424622,80.929459 0.572479,121.392181c-32.510864,0 -65.021683,0 -97.532822,0c0,-5.167236 0,-10.332397 0,-15.499207zm-0.131927,-64.502655c-0.048721,-10.091476 -0.096237,-20.182693 -0.143433,-30.27562c-10.131073,13.813248 -19.105667,28.686737 -30.374573,41.480606c-9.980309,7.019897 -19.1315,-4.414261 -26.685555,-10.056137c-10.563126,-8.89772 -21.402794,-17.502106 -31.29586,-27.235718c-6.045982,-9.644958 4.036148,-23.356445 14.32357,-19.7146c9.214424,4.829239 16.577644,13.064468 24.913826,19.423477c4.958542,5.783798 10.897339,9.471115 14.349228,-0.080154c7.340424,-9.523041 13.223083,-20.599258 22.265213,-28.459793c9.107956,-5.397476 20.138504,-2.153778 30.078796,-3.142059c15.172913,0.048798 30.353058,-0.143631 45.518784,0.314529c-20.641037,29.508316 -41.498291,58.85405 -62.565353,88.019424c-0.357468,-10.082993 -0.28862,-20.182465 -0.384644,-30.273956l0,0zm34.295776,-68.647827c-12.367737,-2.158676 -21.851852,-14.521103 -21.765656,-27.734146c-4.347458,-0.195633 -8.694839,-0.39135 -13.042297,-0.585037c3.718948,-4.973122 7.436508,-9.947586 11.15564,-14.918961c18.537323,0 37.074829,0 55.612442,0c-0.051834,12.362221 1.466187,26.73439 -8.521347,35.599655c-5.947159,6.456161 -15.177124,8.892838 -23.438782,7.638489zm-30.886642,-59.459602c-2.414886,-4.537872 -10.997665,-12.786926 -0.637024,-10.49086c21.160141,-0.321182 42.323257,-0.15892 63.483795,-0.19873c0,6.825478 0,13.649567 0,20.474991c-18.847488,0 -37.693558,0 -56.539383,0c-2.102036,-3.262192 -4.205505,-6.522957 -6.307388,-9.7854l0,0z" stroke-opacity="null" stroke-width="1.5" stroke="null" fill="#3c3c3c"/>
  <path id="svg_6" d="m92.365646,161.903763c0,-0.708374 0,-1.416473 0,-2.124741c-18.28479,0 -36.569641,0 -54.85453,0c0,1.416367 0,2.832993 0,4.24942c18.284889,0 36.56974,0 54.85453,0c0,-0.708282 0,-1.416428 0,-2.12468l0,0zm-56.450783,-0.035583c0,-0.71994 0,-1.439926 0,-2.159866c-0.967529,0 -1.934875,0 -2.902351,0c0,1.439926 0,2.880051 0,4.320129c0.967476,0 1.934822,0 2.902351,0c0,-0.720123 0,-1.440079 0,-2.160263zm-4.643738,0c0,-0.71994 0,-1.439926 0,-2.159866c-0.967506,0 -1.934952,0 -2.902382,0c0,1.439926 0,2.880051 0,4.320129c0.96743,0 1.934875,0 2.902382,0c0,-0.720123 0,-1.440079 0,-2.160263zm4.643738,-4.023956c-0.500389,-1.30455 0.997688,-2.866852 4.057274,-2.820724c3.545166,-0.095612 7.145081,-0.017349 10.668678,-0.12886c3.418205,-0.570663 5.290764,-2.397034 4.807655,-4.09639c0.559067,-0.490662 2.952972,-0.350128 3.937119,-0.888138c4.797089,-1.338959 5.441864,-4.930237 1.424774,-6.744247c-1.407211,-0.707169 -4.101761,-1.287247 -5.885101,-1.1073c0,0.448135 0,0.895905 0,1.343552c3.68605,0.020142 6.486145,1.961609 5.406387,3.662735c-0.844254,1.706665 -4.604996,2.219208 -7.744698,2.242905c-2.006264,0.790466 1.231422,2.152878 -0.512115,3.186386c-1.180344,1.402786 -4.679367,0.945007 -7.118935,1.056015c-3.504845,0.102921 -7.7771,-0.301788 -10.32045,1.198578c-2.180832,1.161819 -1.51107,2.810547 -1.62294,4.251099c0.967476,0 1.934822,0 2.902351,0c0,-0.385254 0,-0.770416 0,-1.155609l0,0zm-4.604401,-0.526474c-0.228508,-1.817078 0.84594,-3.815903 4.042419,-4.910187c3.056053,-1.133865 7.017311,-0.785538 10.597359,-0.844284c2.241928,-0.970718 -1.438362,-2.067505 -1.042847,-3.236115c-0.249725,-1.531204 1.902679,-3.02475 5.009186,-3.353531c1.774673,0.05127 2.458641,-0.179626 2.106316,-1c0.551338,-1.117477 -2.790993,-0.322983 -3.897202,-0.225006c-4.038704,0.707291 -6.717651,2.834976 -6.076515,4.918716c0.104187,0.734009 1.563438,1.780777 -1.024277,1.490814c-5.030632,-0.129654 -9.840538,1.465622 -11.619324,3.752945c-1.308838,1.617294 -0.977119,3.385498 -1.036835,5.08873c0.955353,0 1.910812,0 2.866272,0c0.025116,-0.560486 0.050339,-1.121552 0.075447,-1.682083l0,0z" stroke-opacity="null" stroke-width="1.5" stroke="null" fill="#3c3c3c"/>
 </g>
</svg>