<svg width="300" height="300" xmlns="http://www.w3.org/2000/svg">
 <!-- Created with Method Draw - http://github.com/duopixel/Method-Draw/ -->
 <g>
  <title>background</title>
  <rect fill="none" id="canvas_background" height="302" width="302" y="-1" x="-1"/>
 </g>
 <g>
  <title>Layer 1</title>
  <path id="svg_1" d="m184.466095,229.372864c0,0 -25.699173,-1.420502 -39.308838,-6.851852c-13.61026,-5.431671 -19.961594,-12.356461 -19.961594,-12.356461c0,0 7.14241,5.973206 17.166092,10.498764c6.110382,2.759155 13.291992,4.980713 20.57933,4.980713c0,0 -11.250656,-4.752579 -19.689407,-1.358231c0,0 6.079178,-3.123016 16.604065,-0.746506c10.525513,2.376129 15.78746,1.018311 15.78746,1.018311c0,0 -17.782761,-0.067825 -25.495682,-3.869995c-7.712448,-3.802444 -9.617981,-5.974365 -9.617981,-5.974365c0,0 7.98465,6.178207 14.154663,6.925217c6.169495,0.746994 16.785355,-0.13623 16.785355,-0.13623c0,0 -10.97847,0.204102 -14.426895,-0.950455c-3.447327,-1.1539 -17.057571,-3.462433 -19.506927,1.357986c0,0 2.721603,-5.092194 15.152069,-3.598236c12.430435,1.493256 13.610794,1.018753 13.610794,1.018753c0,0 -22.048965,-6.382751 -34.388992,-2.784042c-12.339569,3.598236 -11.522964,6.653381 -11.522964,6.653381c0,0 0.816666,-10.5914 30.940659,-8.690491c0,0 -14.063828,-1.5616 -19.235855,-4.684311c-5.171616,-3.12291 -5.534714,-5.16011 -5.534714,-5.16011c0,0 5.897247,6.721405 13.156738,6.789291c7.258347,0.068268 9.345123,-0.406906 9.345123,-0.406906c0,0 -14.154663,-2.444397 -20.869141,-1.901291c-6.713913,0.542862 -17.600876,2.308197 -23.317406,-5.431473c0,0 5.352776,7.400604 19.961021,4.82045c14.608154,-2.579865 23.771454,0.271408 23.771454,0.271408c0,0 -22.138733,-3.191055 -26.675476,-6.381744c-4.536163,-3.190933 -5.080025,-8.690445 -5.080025,-8.690445c0,0 1.904915,9.233368 11.249489,10.116547c9.346329,0.882477 23.500427,0.678238 27.221039,3.869583c0,0 -9.345688,-5.16008 -19.05455,-4.480988c-9.708267,0.67926 -24.679062,10.048462 -32.300537,7.604141c-7.62149,-2.444031 -11.069977,-0.407623 -11.069977,-0.407623c0,0 3.176834,-2.376099 8.620041,-1.289856c5.444359,1.086426 6.623512,2.715454 15.968697,-2.104218c9.345695,-4.820557 25.223473,-10.795578 35.295464,-5.635849c0,0 -47.059319,-9.752899 -52.139885,-29.577164c0,0 4.47422,13.217178 27.459709,19.101196c22.987823,5.88327 24.317062,5.431198 24.317062,5.431198c0,0 -35.445557,-2.806824 -52.020027,-26.705002c0,0 14.395599,18.557602 36.777641,21.001328c0,0 -18.872757,-4.887726 -33.511597,-19.824356c-14.637184,-14.936584 -15.244125,-19.916061 -15.244125,-19.916061c0,0 17.785522,23.898117 51.418182,28.153778c0,0 -26.344147,-5.636566 -45.216911,-23.628204c-18.872108,-17.991364 -12.974319,-21.521774 -12.974319,-21.521774c0,0 -4.083244,-6.450272 -0.999062,-7.8759c0,0 -6.079124,-5.159851 -4.354904,-9.369156c0,0 4.354904,15.954529 26.585159,26.410049c22.229675,10.45546 24.135132,11.746002 24.135132,11.746002c0,0 -23.04628,-11.813614 -30.305176,-17.516846c-7.258377,-5.703003 -15.424835,-10.11618 -20.142883,-22.336647c0,0 4.536728,12.084923 18.873291,20.368141c14.334831,8.282898 17.147934,8.146973 17.147934,8.146973c0,0 -29.39711,-11.27005 -36.383797,-29.940758c0,0 4.082642,13.782372 36.475288,26.953636c0,0 -32.482979,-14.325592 -36.475288,-29.601433c0,0 -0.725731,-2.24099 0.635353,-3.32692c0,0 -1.633835,-2.919212 -1.088837,-6.585815c0.543823,-3.665901 1.179176,-7.603485 1.179176,-7.603485c0,0 -1.451424,15.479782 18.69146,27.428505c0,0 -23.772629,-21.319412 -15.303253,-38.880005c0,0 -1.815674,9.685814 3.870743,14.121338c0,0 -4.840263,-7.784119 -2.540337,-16.927765c0,0 -0.605766,9.686493 5.443779,18.467262c6.049522,8.780518 25.405357,25.799095 25.405357,25.799095c0,0 -22.743446,-19.915779 -26.373146,-31.141029c-3.628624,-11.224472 -1.57312,-18.556526 -1.57312,-18.556526c0,0 -2.055504,10.49984 6.775345,21.001617c8.831398,10.500664 11.856422,11.677361 11.856422,11.677361c0,0 -24.318756,-18.920509 -15.124756,-39.921066c0,0 -0.603554,21.272713 9.437248,30.415657c10.042435,9.143661 13.065186,9.414734 13.065186,9.414734c0,0 -20.687263,-12.220871 -19.962082,-29.329704c0.726852,-17.108589 4.599213,-18.014137 4.599213,-18.014137c0,0 -8.590988,14.482658 5.200546,28.424416c13.792122,13.941727 11.010254,11.315552 11.010254,11.315552c0,0 -19.597839,-19.009697 -15.72657,-33.856056c3.871223,-14.846218 11.250076,-14.664852 11.250076,-14.664852c0,0 -8.104561,3.982368 -7.741386,13.125332c0.362534,9.142952 11.976913,26.885796 11.976913,26.885796c0,0 -12.945297,-24.350304 -9.437218,-31.864159c3.508118,-7.513874 10.888702,-9.776741 10.888702,-9.776741c0,0 -14.398506,6.156136 -6.050728,22.631851c0,0 -5.201645,-15.659988 8.709747,-22.992519c0,0 -9.91909,7.06144 -5.806305,20.186771c0,0 -1.209892,-16.114349 11.976379,-21.635872c0,0 -8.466499,4.979881 -8.588135,15.027718c0,0 1.814568,-10.139294 11.855301,-15.841892c0,0 -7.622063,8.690052 -7.137863,21.182278c0,0 5.687012,-12.31004 8.469925,-21.362957c0,0 0.482483,4.888794 -1.573563,10.952728c-2.056122,6.065434 -3.023376,6.607845 -3.023376,6.607845c0,0 7.378235,-8.146961 7.741943,-16.112606c0,0 0.362549,7.785637 -2.78186,14.303532c0,0 5.98999,-3.603924 6.74408,-11.589569c0.011353,-0.118809 0.021057,-0.238747 0.030106,-0.359814c0,0 1.692978,11.676533 -4.477036,21.544102c-6.170074,9.868286 -9.073524,10.773163 -9.073524,10.773163c0,0 13.672218,-9.686958 15.727745,-23.084053c0,0 0.242691,7.512787 -3.386551,14.030235c-3.62915,6.518311 -7.501526,11.497765 -7.501526,11.497765c0,0 18.267517,-12.403313 15.24353,-34.670959c0,0 3.507568,12.401138 0.362503,21.815857c-3.144333,9.414734 -18.631699,23.898186 -18.631699,23.898186c0,0 24.07608,-15.932953 25.164429,-41.188782c0,0 2.903412,14.936607 -8.166519,28.515091c0,0 16.332458,-13.850212 15.969833,-27.021145c0,0 3.6297,6.653027 0.543884,15.751095c-3.084198,9.09742 -17.782715,30.415749 -33.026855,35.575882c0,0 41.374512,-16.701988 38.652985,-45.352592c0,0 4.536209,13.035339 -1.088898,25.663788c-5.625061,12.627777 -27.039154,31.909248 -27.039154,31.909248c0,0 30.668427,-21.182327 35.205139,-44.266365c0,0 1.45137,-7.060562 -0.363174,-11.27002c0,0 7.440781,2.444374 7.984665,12.899963c0.543854,10.455406 -6.713959,24.577164 -11.795105,34.489395c-5.081146,9.912056 -15.968719,23.083588 -15.968719,23.083588c0,0 35.385864,-40.464172 30.304108,-60.289154c0,0 9.074127,8.554543 7.984604,19.689461c-1.087677,11.134224 -8.709671,42.093056 -29.941483,56.07917c0,0 22.865051,-13.578156 29.216324,-38.29126c0,0 3.266052,-13.171616 2.721664,-20.368515c0,0 4.536255,15.208351 2.903503,26.614632c-1.632828,11.405952 -18.690903,36.933617 -18.690903,36.933617c0,0 18.690903,-21.318344 19.961029,-34.625381c0,0 1.996338,8.011368 0.544388,15.343918c-1.451462,7.332306 -9.798676,21.046692 -16.876816,29.057861c0,0 14.880966,-16.022537 17.965759,-23.083603c3.085266,-7.060745 2.540176,-11.134201 2.540176,-11.134201c0,0 3.629776,21.99736 -2.17717,32.31691c-5.807419,10.319672 -24.135147,25.66391 -25.405319,32.859802c0,0 8.529175,-16.70134 27.038696,-19.281235c18.509552,-2.580261 29.033936,1.357666 29.033936,1.357666c0,0 -28.126389,-6.789215 -43.188644,5.974823c0,0 -7.621506,6.925415 -7.803329,13.171539c0,0 19.599045,-10.319565 22.683121,-24.442047c3.085922,-14.121292 17.421921,-16.294327 17.421921,-16.294327c0,0 -15.969269,4.481201 -15.78801,16.702408c0.18129,12.220398 -18.146973,26.613495 -22.502487,26.206558c0,0 14.881073,-3.123001 20.143494,-12.492157c0,0 -3.448471,9.504654 -10.887527,15.003769c-7.440796,5.499146 -4.991348,7.875687 -4.991348,7.875687c0,0 2.540787,-5.906464 9.981079,-10.86319c7.44072,-4.956024 17.239365,-13.510269 17.330276,-19.281158c0.090393,-5.770935 8.165985,-11.541794 8.165985,-11.541794c0,0 -6.351242,6.041962 -6.624161,10.387924c-0.271622,4.344559 0.635376,11.133789 -9.979858,16.837479c-10.616516,5.702591 -15.062302,15.95433 -14.880981,20.435059c0,0 7.410065,-15.999817 29.186752,-19.167984c0,0 -20.809418,3.077454 -28.187744,20.639877c0,0 13.790405,-17.56131 32.179382,-22.178329c0,0 -19.598328,6.24614 -29.034393,21.545197c0,0 5.564819,-10.86467 22.985504,-11.316223c0,0 -14.517883,1.448044 -20.44458,11.677612c0,0 2.661285,-4.343765 12.581558,-5.88327c9.920273,-1.539505 18.266968,-6.880341 16.210831,-11.950958c0,0 2.540222,7.059937 -10.40387,11.768097c-12.944839,4.70874 -18.382904,15.982285 -18.382904,15.982285c0,0 10.540802,7.467819 19.063705,13.761475c-0.673431,3.523911 -2.997253,4.493652 -5.159073,4.866409c-0.772873,0.133621 -18.820419,-15.052826 -19.847885,-15.355652z" fill-opacity="null" stroke-width="1.5" fill="#fff"/>
 </g>
</svg>