<svg width="500" height="500" xmlns="http://www.w3.org/2000/svg">
 <!-- Created with Method Draw - http://github.com/duopixel/Method-Draw/ -->
 <g>
  <title>background</title>
  <rect fill="none" id="canvas_background" height="502" width="502" y="-1" x="-1"/>
  <g display="none" overflow="visible" y="0" x="0" height="100%" width="100%" id="canvasGrid">
   <rect fill="url(#gridpattern)" stroke-width="0" y="0" x="0" height="100%" width="100%"/>
  </g>
 </g>
 <g>
  <title>Layer 1</title>
  <path id="svg_5" d="m6.474599,248.506561l61.760005,-18.169586l-57.077296,-30.026215l64.061725,-5.562485l-50.191999,-40.765549l63.901434,7.207169l-41.406792,-49.921524l61.29895,19.712952l-31.019279,-57.149033l56.315735,31.447258l-19.412186,-62.143166l49.191925,42.003784l-7.084518,-64.843073l40.166046,50.936495l5.503601,-64.984881l29.619202,57.899699l17.91217,-62.650375l17.890945,62.650375l29.599365,-57.899699l5.503418,64.984881l40.186554,-50.936495l-7.105042,64.843073l49.212219,-42.003784l-19.45282,62.163452l56.316864,-31.447205l-31,57.128693l61.278961,-19.712952l-41.427032,49.901108l63.90155,-7.207016l-50.171539,40.785812l64.041168,5.562485l-57.077057,30.026215l61.759552,18.169586l-61.759552,18.170258l57.077057,30.025879l-64.041168,5.562439l50.191742,40.765656l-63.901764,-7.207153l41.426971,49.921204l-61.278534,-19.712677l30.998932,57.128479l-56.316071,-31.446991l19.432739,62.163605l-49.212219,-41.983765l7.105042,64.822693l-40.186554,-50.936371l-5.503418,64.964417l-29.599365,-57.899445l-17.891998,62.650696l-17.911118,-62.650696l-29.619202,57.899445l-5.503601,-64.964417l-40.166046,50.936371l7.084518,-64.822693l-49.191925,41.983765l19.432373,-62.163605l-56.31588,31.446991l31.019318,-57.128479l-61.299023,19.712677l41.406879,-49.921204l-63.92153,7.207153l50.191999,-40.765656l-64.061725,-5.562439l57.097301,-30.025879l-61.780009,-18.170258z" stroke-opacity="null" stroke-width="1.5" stroke="null" fill="#D4D3CF"/>
 </g>
</svg>